Coordinates
version=1
nRows=20
nColumns=32
inDegrees=yes

Units are S.I. units (second, meters, Newtons, ...)
If the header above contains a line with 'inDegrees', this indicates whether rotational values are in degrees (yes) or radians (no).

endheader
time	pelvis_tilt	pelvis_list	pelvis_rotation	pelvis_tx	pelvis_ty	pelvis_tz	hip_flexion_r	hip_adduction_r	hip_rotation_r	knee_angle_r	knee_adduction_r	med_cond_adduction_r	lat_cond_adduction_r	patella_r_constrained_knee_angle	hip_flexion_l	hip_adduction_l	hip_rotation_l	knee_angle_l	knee_adduction_l	med_cond_adduction_l	lat_cond_adduction_l	patella_l_constrained_knee_angle	lumbar_extension	lumbar_bending	lumbar_rotation	ankle_angle_r	subtalar_angle_r	mtp_angle_r	ankle_angle_l	subtalar_angle_l	mtp_angle_l
      1.24500000	      3.79052623	      1.85322760	      5.39623781	      0.39456862	      0.80259247	      0.15140634	     29.85785071	     -6.58344474	     -3.72805519	    -33.97972303	      2.24001467	     -0.00000000	     -0.00000000	     -0.59305805	    -15.47363775	      4.39240176	     -2.11890581	     -3.01599906	      2.53636404	      0.00000000	      0.00000000	     -0.05263911	    -15.76394196	     -1.65957664	     -9.77484741	    -14.09741214	     -4.10848454	      0.00000000	     11.94699307	      4.77742649	      0.00000000
      1.25000000	      3.86113297	      1.84053701	      5.86228368	      0.40062742	      0.80162743	      0.15110737	     29.70736270	     -6.84497131	     -4.70010460	    -32.08747243	      2.01990521	     -0.00000000	     -0.00000000	     -0.56003204	    -15.98695062	      4.14512558	     -2.15017042	     -3.14240701	      2.60944487	     -0.00000000	     -0.00000000	     -0.05484535	    -15.92206006	     -1.58990918	    -10.14062931	    -14.62644445	     -3.09658862	      0.00000000	     12.36078668	      5.33273975	     -0.00000000
      1.25500000	      3.79414537	      2.00891017	      6.15701092	      0.40645106	      0.80044709	      0.15092813	     29.75859757	     -7.18096961	     -5.12627407	    -30.29026932	      1.92274088	     -0.00000000	     -0.00000000	     -0.52866493	    -16.42829437	      4.22829007	     -1.82551450	     -3.09141377	      2.60670932	      0.00000000	      0.00000000	     -0.05395535	    -15.97799460	     -1.76446461	    -10.29248972	    -15.31806167	     -2.48141752	      0.00000000	     12.55214826	      5.05233284	     -0.00000000
      1.26000000	      3.74063374	      2.17179777	      6.45223751	      0.41239712	      0.79930209	      0.15079561	     29.77391056	     -7.52984577	     -5.58072886	    -28.56484922	      1.88932322	     -0.00000000	     -0.00000000	     -0.49855067	    -16.92003494	      4.26945529	     -1.43188562	     -2.99147392	      2.64020632	     -0.00000000	     -0.00000000	     -0.05221107	    -16.03360073	     -1.93857850	    -10.44357523	    -16.01455493	     -1.86711433	     -0.00000000	     12.66013179	      4.75828767	      0.00000000
      1.26500000	      3.74863484	      2.12443784	      6.71331769	      0.41841493	      0.79819869	      0.15084311	     29.67160673	     -7.56241353	     -6.11470581	    -26.80686810	      1.74869330	     -0.00000000	     -0.00000000	     -0.46786811	    -16.98677416	      4.08304687	     -2.19712920	     -3.87421638	      2.48195004	      0.00000000	      0.00000000	     -0.06761783	    -16.12203746	     -1.89247308	    -10.54985846	    -16.76696620	     -1.29414835	      0.00000000	     13.64942021	      6.30321650	      0.00000000
      1.27000000	      3.74089212	      2.15622073	      6.97345373	      0.42441039	      0.79709112	      0.15088032	     29.61988853	     -7.68650297	     -6.62276943	    -25.24896183	      1.65355780	     -0.00000000	     -0.00000000	     -0.44067752	    -17.13501193	      4.01091039	     -2.58236890	     -4.55242283	      2.30158885	     -0.00000000	     -0.00000000	     -0.07945477	    -16.21926367	     -1.92042902	    -10.68034177	    -17.42495945	     -0.72171887	     -0.00000000	     14.34454687	      7.26691986	     -0.00000000
      1.27500000	      3.74464780	      2.21308354	      7.27990719	      0.43051464	      0.79602989	      0.15079739	     29.56443990	     -7.89071427	     -7.28572404	    -23.85729193	      1.56647371	     -0.00000000	     -0.00000000	     -0.41638829	    -17.52168420	      3.93270751	     -2.32913301	     -4.77810714	      2.27660263	      0.00000000	      0.00000000	     -0.08339370	    -16.31712262	     -1.95766204	    -10.85875806	    -18.00729679	     -0.02827591	     -0.00000000	     14.56332645	      7.15426763	     -0.00000000
      1.28000000	      3.79345585	      2.10411902	      7.52923043	      0.43666968	      0.79504223	      0.15088095	     29.43737282	     -7.82422733	     -7.94200393	    -22.50484299	      1.39030513	      0.00000000	      0.00000000	     -0.39278361	    -17.70606025	      3.66373157	     -2.68741623	     -5.48087708	      2.15168875	     -0.00000000	     -0.00000000	     -0.09565935	    -16.42419036	     -1.79857285	    -10.98783267	    -18.59928246	      0.70351980	     -0.00000000	     15.18477010	      8.03031385	     -0.00000000
      1.28500000	      3.78563954	      2.09762028	      7.75816207	      0.44282266	      0.79403587	      0.15097693	     29.40163248	     -7.87112570	     -8.38858262	    -21.34870457	      1.35082939	      0.00000000	      0.00000000	     -0.37260519	    -17.92316772	      3.53600355	     -2.63528920	     -6.00506782	      2.07781180	      0.00000000	      0.00000000	     -0.10480821	    -16.49382175	     -1.78764135	    -11.08582489	    -19.22304316	      1.07188943	     -0.00000000	     15.52227523	      8.14319106	      0.00000000
      1.29000000	      3.78231397	      2.11991501	      8.00794674	      0.44899691	      0.79304170	      0.15096748	     29.40441379	     -7.99138494	     -8.86949090	    -20.45678682	      1.35489749	     -0.00000000	     -0.00000000	     -0.35703828	    -18.14606673	      3.51035702	     -2.51176158	     -6.51552711	      1.83658990	     -0.00000000	     -0.00000000	     -0.11371740	    -16.56856611	     -1.77448922	    -11.25018917	    -19.65374767	      1.46219776	     -0.00000000	     15.73572677	      8.27441858	      0.00000000
      1.29500000	      3.86130484	      1.91015403	      8.29396873	      0.45537526	      0.79225124	      0.15112333	     29.28871828	     -7.73483146	     -9.68557281	    -19.61147041	      1.02490365	      0.00000000	      0.00000000	     -0.34228473	    -18.42832259	      3.09441196	     -2.37950267	     -7.04980091	      1.82584245	     -0.00000000	     -0.00000000	     -0.12304224	    -16.66726676	     -1.49713672	    -11.36387074	    -20.02097761	      2.19021989	     -0.00000000	     15.93933555	      8.22321809	     -0.00000000
      1.30000000	      3.81093825	      1.93242562	      8.41219807	      0.46158646	      0.79125931	      0.15133457	     29.39009820	     -7.77543612	     -9.79042355	    -19.06462600	      1.15051690	     -0.00000000	      0.00000000	     -0.33274049	    -18.45830427	      3.10716933	     -2.46759625	     -7.84861839	      1.52820794	      0.00000000	      0.00000000	     -0.13698423	    -16.69119970	     -1.52783238	    -11.46240503	    -20.49226579	      2.11667453	      0.00000000	     16.25720792	      8.69604680	     -0.00000000
      1.30500000	      3.88109287	      1.72025627	      8.65889088	      0.46803361	      0.79052553	      0.15155383	     29.31386164	     -7.51828620	    -10.41866013	    -18.58155488	      0.97161102	     -0.00000000	     -0.00000000	     -0.32430931	    -18.64271876	      2.72489885	     -2.34131057	     -8.53981106	      1.44005120	     -0.00000000	     -0.00000000	     -0.14904782	    -16.76083831	     -1.25601304	    -11.57136082	    -20.79855312	      2.48797297	      0.00000000	     16.41383022	      8.65056220	     -0.00000000
      1.31000000	      3.91653210	      1.53829389	      8.78109111	      0.47446087	      0.78978058	      0.15193420	     29.30864480	     -7.19839519	    -10.69131569	    -18.25660078	      0.83644051	      0.00000000	      0.00000000	     -0.31863779	    -18.72868098	      2.44646276	     -2.42813369	     -9.35849563	      1.25107010	     -0.00000000	     -0.00000000	     -0.16333656	    -16.81179815	     -1.04982558	    -11.60801446	    -21.08719731	      2.57699139	     -0.00000000	     16.56811416	      8.83264645	     -0.00000000
      1.31500000	      3.92024346	      1.34056123	      8.89275676	      0.48100323	      0.78903106	      0.15233830	     29.36961085	     -6.84333290	    -10.94896940	    -18.16212969	      0.64391286	     -0.00000000	     -0.00000000	     -0.31698896	    -18.72432179	      2.17669123	     -2.48540418	    -10.29306700	      1.00354232	      0.00000000	      0.00000000	     -0.17964791	    -16.79489209	     -0.83104292	    -11.62515056	    -21.24212316	      2.72430783	      0.00000000	     16.73383092	      9.09298527	      0.00000000
      1.32000000	      3.90444054	      1.23478095	      8.93470252	      0.48754428	      0.78831857	      0.15269997	     29.46466219	     -6.63751653	    -10.92676741	    -18.25755903	      0.71472843	      0.00000000	      0.00000000	     -0.31865452	    -18.81539617	      2.08452180	     -2.34475042	    -11.00374587	      0.73353020	     -0.00000000	     -0.00000000	     -0.19205160	    -16.77432160	     -0.70833317	    -11.64586344	    -21.34778063	      2.47500742	     -0.00000000	     16.60552772	      8.94535182	     -0.00000000
      1.32500000	      3.94975416	      0.96791891	      9.01871874	      0.49426493	      0.78777759	      0.15319982	     29.45996067	     -6.14827639	    -11.14652899	    -18.40725809	      0.49189286	      0.00000000	      0.00000000	     -0.32126726	    -18.90130992	      1.71820413	     -2.21161653	    -11.81880949	      0.59611465	      0.00000000	      0.00000000	     -0.20627714	    -16.76518127	     -0.41267933	    -11.66798617	    -21.31616429	      2.54403839	     -0.00000000	     16.46794801	      8.77882921	     -0.00000000
      1.33000000	      3.93258040	      0.85497130	      9.06185179	      0.50100042	      0.78722838	      0.15361232	     29.54206659	     -5.89506861	    -11.09296985	    -18.78525719	      0.51187019	      0.00000000	      0.00000000	     -0.32786459	    -19.01864486	      1.61061400	     -1.78170133	    -12.46755562	      0.40821910	     -0.00000000	     -0.00000000	     -0.21759990	    -16.70014567	     -0.28569200	    -11.73255940	    -21.21954146	      2.27626314	     -0.00000000	     16.02725530	      8.19723322	     -0.00000000
      1.33500000	      4.03968957	      0.44790673	      9.16909195	      0.50794535	      0.78689592	      0.15423026	     29.39965536	     -5.18414278	    -11.40133351	    -19.04100246	      0.17949630	     -0.00000000	      0.00000000	     -0.33232819	    -19.10494981	      1.01467729	     -1.62937961	    -13.37998087	      0.39833511	     -0.00000000	     -0.00000000	     -0.23352472	    -16.69989670	      0.19028816	    -11.79422856	    -21.00197381	      2.33196033	     -0.00000000	     15.76304313	      7.92916817	      0.00000000
      1.34000000	      4.01055423	      0.32226024	      9.07890725	      0.51488840	      0.78644378	      0.15483734	     29.43772385	     -4.82912092	    -10.99163782	    -19.55801325	      0.30159224	     -0.00000000	     -0.00000000	     -0.34135173	    -19.16572695	      0.96543797	     -1.36201198	    -14.13269239	      0.12161623	     -0.00000000	     -0.00000000	     -0.24666201	    -16.59149213	      0.28862560	    -11.71189473	    -20.75737479	      1.63697352	      0.00000000	     15.24850758	      7.48112293	      0.00000000
